# xmcd
#
# Track frame offsets:
#	150
#	11895
#	21664
#	30526
#	44527
#	52767
#	66621
#	82192
#	90817
#	103567
#	113414
#	122029
#	131363
#	141042
#	150342
#	160069
#	171446
#	181811
#	194240
#	205610
#	220944
#	235191
#	248021
#	257894
#	268390
#
# Disc length: 3728 seconds
#
# Revision: 1
# Processed by: cddbd v1.5.2PL0 Copyright (c) Steve Scherf et al.
# Submitted via: audiograbber 1.83.01
#
DISCID=600e8e19
DTITLE=Ford Tennessee Ernie - The very Best of
DYEAR=19
DGENRE=CO/Boo/
TTITLE0=Sixteen Tons
TTITLE1=Shotgun Boogie
TTITLE2=Nine Pound Hammer
TTITLE3=Give me your Word
TTITLE4=Blackberry Boogie
TTITLE5=Mr and Mississippi
TTITLE6=Cold cold Heart
TTITLE7=Ain't Nobody's Bussiness but my Own
TTITLE8=John Henry
TTITLE9=Catfish Boogie
TTITLE10=Little red Rockin' Hood
TTITLE11=The Rovin' Gambler
TTITLE12=Country Junction
TTITLE13=One Suit
TTITLE14=Half as much
TTITLE15=Call me Darling Call me Sweetheart Call me Dear
TTITLE16=Bouquet of Roses
TTITLE17=That's All
TTITLE18=The River of no Return
TTITLE19=I gave my Love a Cherry
TTITLE20=I Love you so much it Hurts
TTITLE21=Take me in your Arms and hold me
TTITLE22=She's my Baby
TTITLE23=False Hearted Girl
TTITLE24=Don't Rob another Man's Castle
EXTD=
EXTT0=
EXTT1=
EXTT2=
EXTT3=
EXTT4=
EXTT5=
EXTT6=
EXTT7=
EXTT8=
EXTT9=
EXTT10=
EXTT11=
EXTT12=
EXTT13=
EXTT14=
EXTT15=
EXTT16=
EXTT17=
EXTT18=
EXTT19=
EXTT20=
EXTT21=
EXTT22=
EXTT23=
EXTT24=
PLAYORDER=
